<svg xmlns="http://www.w3.org/2000/svg" width="920" height="690" viewBox="0 0 920 690" role="img" aria-labelledby="title desc">
  <title id="title">Care circle mobile app visual</title>
  <desc id="desc">A senior-friendly mobile app screen for saved providers, events, family notes, and care circle sharing.</desc>
  <rect width="920" height="690" fill="#F7F1E7"/>
  <rect x="336" y="54" width="248" height="574" rx="42" fill="#152238"/>
  <rect x="360" y="92" width="200" height="498" rx="28" fill="#FFFFFF"/>
  <rect x="386" y="122" width="148" height="28" rx="14" fill="#DDECE8"/>
  <text x="389" y="177" fill="#174F49" font-family="Arial, Helvetica, sans-serif" font-size="24" font-weight="900">Care circle</text>
  <text x="389" y="204" fill="#66706F" font-family="Arial, Helvetica, sans-serif" font-size="14">Saved for Mom</text>
  <rect x="386" y="234" width="148" height="70" rx="16" fill="#F7F1E7" stroke="#E7DDCE" stroke-width="2"/>
  <text x="404" y="262" fill="#152238" font-family="Arial, Helvetica, sans-serif" font-size="16" font-weight="800">2 tours</text>
  <text x="404" y="284" fill="#66706F" font-family="Arial, Helvetica, sans-serif" font-size="13">Saturday shortlist</text>
  <rect x="386" y="324" width="148" height="70" rx="16" fill="#DDECE8"/>
  <text x="404" y="352" fill="#174F49" font-family="Arial, Helvetica, sans-serif" font-size="16" font-weight="800">3 notes</text>
  <text x="404" y="374" fill="#174F49" font-family="Arial, Helvetica, sans-serif" font-size="13">Budget, safety, meals</text>
  <rect x="386" y="414" width="148" height="70" rx="16" fill="#F4E4C4"/>
  <text x="404" y="442" fill="#70480E" font-family="Arial, Helvetica, sans-serif" font-size="16" font-weight="800">Family shared</text>
  <text x="404" y="464" fill="#70480E" font-family="Arial, Helvetica, sans-serif" font-size="13">Daughter + brother</text>
  <circle cx="276" cy="214" r="52" fill="#F2D5B7"/>
  <circle cx="274" cy="196" r="18" fill="#6F463E"/>
  <path d="M242 255c12-32 52-32 64 0" fill="#2F766D"/>
  <circle cx="654" cy="238" r="46" fill="#EBC9C3"/>
  <circle cx="654" cy="222" r="16" fill="#39465B"/>
  <path d="M624 276c11-28 49-28 60 0" fill="#BF7D2A"/>
  <circle cx="258" cy="432" r="42" fill="#DDECE8"/>
  <circle cx="258" cy="418" r="15" fill="#174F49"/>
  <path d="M230 468c10-25 46-25 56 0" fill="#9F5244"/>
  <path d="M319 226c45 21 63 40 88 75M602 250c-39 28-58 53-80 90M312 430c41-15 65-2 95 28" fill="none" stroke="#2F766D" stroke-width="7" stroke-linecap="round"/>
  <text x="118" y="588" fill="#174F49" font-family="Arial, Helvetica, sans-serif" font-size="30" font-weight="900">A mobile care circle families can actually use</text>
</svg>
