<svg xmlns="http://www.w3.org/2000/svg" width="920" height="690" viewBox="0 0 920 690" role="img" aria-labelledby="title desc">
  <title id="title">Operator occupancy response visual</title>
  <desc id="desc">An operator dashboard showing missed inquiries converted into tour follow-up.</desc>
  <rect width="920" height="690" fill="#F7F1E7"/>
  <rect x="64" y="58" width="792" height="574" rx="30" fill="#FFFFFF" stroke="#E7DDCE" stroke-width="3"/>
  <rect x="104" y="112" width="246" height="410" rx="22" fill="#174F49"/>
  <text x="132" y="156" fill="#FFFFFF" font-family="Arial, Helvetica, sans-serif" font-size="23" font-weight="800">Inquiry triage</text>
  <text x="132" y="184" fill="#CFE8E2" font-family="Arial, Helvetica, sans-serif" font-size="15">Live family intent</text>
  <rect x="132" y="228" width="190" height="74" rx="16" fill="#FFFFFF" opacity=".95"/>
  <text x="154" y="258" fill="#9F5244" font-family="Arial, Helvetica, sans-serif" font-size="31" font-weight="900">3</text>
  <text x="194" y="251" fill="#152238" font-family="Arial, Helvetica, sans-serif" font-size="16" font-weight="800">missed calls</text>
  <text x="194" y="274" fill="#66706F" font-family="Arial, Helvetica, sans-serif" font-size="14">After 5 p.m.</text>
  <rect x="132" y="326" width="190" height="74" rx="16" fill="#FFFFFF" opacity=".95"/>
  <text x="154" y="356" fill="#BF7D2A" font-family="Arial, Helvetica, sans-serif" font-size="31" font-weight="900">7</text>
  <text x="194" y="349" fill="#152238" font-family="Arial, Helvetica, sans-serif" font-size="16" font-weight="800">new inquiries</text>
  <text x="194" y="372" fill="#66706F" font-family="Arial, Helvetica, sans-serif" font-size="14">Needs tour follow-up</text>
  <rect x="132" y="424" width="190" height="54" rx="16" fill="#BF7D2A"/>
  <text x="162" y="459" fill="#FFFFFF" font-family="Arial, Helvetica, sans-serif" font-size="17" font-weight="800">Route to admissions</text>
  <rect x="400" y="120" width="348" height="92" rx="20" fill="#FBF8F1" stroke="#E7DDCE" stroke-width="2"/>
  <text x="430" y="154" fill="#152238" font-family="Arial, Helvetica, sans-serif" font-size="22" font-weight="800">AI response sent in 43 sec</text>
  <text x="430" y="184" fill="#66706F" font-family="Arial, Helvetica, sans-serif" font-size="16">Captured care type, budget, timeline, and preferred tour window.</text>
  <rect x="400" y="250" width="348" height="246" rx="20" fill="#DDECE8"/>
  <line x1="446" y1="438" x2="704" y2="438" stroke="#174F49" stroke-width="8" stroke-linecap="round"/>
  <rect x="454" y="360" width="42" height="78" rx="8" fill="#2F766D"/>
  <rect x="530" y="314" width="42" height="124" rx="8" fill="#BF7D2A"/>
  <rect x="606" y="284" width="42" height="154" rx="8" fill="#9F5244"/>
  <text x="430" y="295" fill="#174F49" font-family="Arial, Helvetica, sans-serif" font-size="22" font-weight="800">Tour opportunities</text>
  <text x="430" y="326" fill="#66706F" font-family="Arial, Helvetica, sans-serif" font-size="16">Response speed, source, and conversion signal in one view.</text>
  <path d="M346 344c42 0 42-70 84-70" fill="none" stroke="#BF7D2A" stroke-width="9" stroke-linecap="round"/>
  <path d="M418 260l22 13-21 16" fill="none" stroke="#BF7D2A" stroke-width="9" stroke-linecap="round" stroke-linejoin="round"/>
  <text x="104" y="574" fill="#174F49" font-family="Arial, Helvetica, sans-serif" font-size="29" font-weight="900">Occupancy response, not generic CRM</text>
</svg>
