<svg xmlns="http://www.w3.org/2000/svg" width="920" height="690" viewBox="0 0 920 690" role="img" aria-labelledby="title desc">
  <title id="title">Senior living tour planning visual</title>
  <desc id="desc">A tour card showing a senior living community, checklist, date, and family questions.</desc>
  <rect width="920" height="690" fill="#F8F3E9"/>
  <rect x="70" y="70" width="780" height="540" rx="28" fill="#FFFFFF" stroke="#E7DDCE" stroke-width="3"/>
  <rect x="118" y="132" width="330" height="258" rx="20" fill="#DDECE8"/>
  <path d="M155 286h256v75H155z" fill="#174F49"/>
  <path d="M177 286V187l107-64 107 64v99" fill="#FFFFFF" stroke="#2F766D" stroke-width="8" stroke-linejoin="round"/>
  <path d="M215 286v-53h54v53M305 286v-76h54v76" fill="#F7F1E7" stroke="#BF7D2A" stroke-width="7"/>
  <circle cx="155" cy="164" r="18" fill="#BF7D2A"/>
  <rect x="500" y="132" width="254" height="74" rx="18" fill="#174F49"/>
  <text x="528" y="166" fill="#FFFFFF" font-family="Arial, Helvetica, sans-serif" font-size="22" font-weight="800">Saturday tour</text>
  <text x="528" y="190" fill="#CFE8E2" font-family="Arial, Helvetica, sans-serif" font-size="15">Memory care community visit</text>
  <g font-family="Arial, Helvetica, sans-serif">
    <rect x="500" y="240" width="254" height="54" rx="14" fill="#FBF8F1" stroke="#E7DDCE" stroke-width="2"/>
    <circle cx="527" cy="267" r="12" fill="#2F766D"/>
    <path d="M521 267l5 5 10-13" fill="none" stroke="#FFFFFF" stroke-width="4" stroke-linecap="round"/>
    <text x="552" y="273" fill="#152238" font-size="17" font-weight="700">Meals and medication support</text>
    <rect x="500" y="318" width="254" height="54" rx="14" fill="#FBF8F1" stroke="#E7DDCE" stroke-width="2"/>
    <circle cx="527" cy="345" r="12" fill="#2F766D"/>
    <path d="M521 345l5 5 10-13" fill="none" stroke="#FFFFFF" stroke-width="4" stroke-linecap="round"/>
    <text x="552" y="351" fill="#152238" font-size="17" font-weight="700">Fall prevention questions</text>
    <rect x="500" y="396" width="254" height="54" rx="14" fill="#FBF8F1" stroke="#E7DDCE" stroke-width="2"/>
    <circle cx="527" cy="423" r="12" fill="#2F766D"/>
    <path d="M521 423l5 5 10-13" fill="none" stroke="#FFFFFF" stroke-width="4" stroke-linecap="round"/>
    <text x="552" y="429" fill="#152238" font-size="17" font-weight="700">Pricing and availability</text>
  </g>
  <rect x="118" y="432" width="630" height="82" rx="18" fill="#F4E4C4"/>
  <text x="150" y="466" fill="#70480E" font-family="Arial, Helvetica, sans-serif" font-size="20" font-weight="800">Tour reminder</text>
  <text x="150" y="493" fill="#70480E" font-family="Arial, Helvetica, sans-serif" font-size="17">Bring care notes, medication list, and the family questions saved in TheSeniorGuru.</text>
  <text x="118" y="562" fill="#174F49" font-family="Arial, Helvetica, sans-serif" font-size="28" font-weight="800">Turn local search into a prepared visit</text>
</svg>
